<mxfile host="app.diagrams.net" modified="2022-07-30T14:34:30.211Z" agent="5.0 (Windows NT 10.0; Win64; x64) AppleWebKit/537.36 (KHTML, like Gecko) Chrome/98.0.4758.82 Safari/537.36" etag="4VHdSmpd1Nk1DZIeQwYh" version="20.2.0" type="github">
  <diagram id="QBoSd79RK-i-sYSmXULv" name="第 1 页">
    <mxGraphModel dx="865" dy="488" grid="1" gridSize="10" guides="1" tooltips="1" connect="1" arrows="1" fold="1" page="1" pageScale="1" pageWidth="827" pageHeight="1169" math="0" shadow="0">
      <root>
        <mxCell id="0" />
        <mxCell id="1" parent="0" />
        <mxCell id="kncKO0AR9khzgeK6I7eO-5" style="edgeStyle=orthogonalEdgeStyle;rounded=0;orthogonalLoop=1;jettySize=auto;html=1;exitX=0.5;exitY=0;exitDx=0;exitDy=0;entryX=0.5;entryY=1;entryDx=0;entryDy=0;" edge="1" parent="1" source="kncKO0AR9khzgeK6I7eO-1" target="kncKO0AR9khzgeK6I7eO-4">
          <mxGeometry relative="1" as="geometry" />
        </mxCell>
        <mxCell id="kncKO0AR9khzgeK6I7eO-1" value="onnx、tensorRT" style="rounded=0;whiteSpace=wrap;html=1;" vertex="1" parent="1">
          <mxGeometry x="50" y="480" width="120" height="60" as="geometry" />
        </mxCell>
        <mxCell id="kncKO0AR9khzgeK6I7eO-6" style="edgeStyle=orthogonalEdgeStyle;rounded=0;orthogonalLoop=1;jettySize=auto;html=1;exitX=0.5;exitY=0;exitDx=0;exitDy=0;" edge="1" parent="1" source="kncKO0AR9khzgeK6I7eO-2">
          <mxGeometry relative="1" as="geometry">
            <mxPoint x="259.80952380952374" y="420" as="targetPoint" />
          </mxGeometry>
        </mxCell>
        <mxCell id="kncKO0AR9khzgeK6I7eO-2" value="ffmpeg" style="rounded=0;whiteSpace=wrap;html=1;" vertex="1" parent="1">
          <mxGeometry x="200" y="480" width="120" height="60" as="geometry" />
        </mxCell>
        <mxCell id="kncKO0AR9khzgeK6I7eO-7" style="edgeStyle=orthogonalEdgeStyle;rounded=0;orthogonalLoop=1;jettySize=auto;html=1;exitX=0.5;exitY=0;exitDx=0;exitDy=0;entryX=0.5;entryY=1;entryDx=0;entryDy=0;" edge="1" parent="1" source="kncKO0AR9khzgeK6I7eO-3" target="kncKO0AR9khzgeK6I7eO-4">
          <mxGeometry relative="1" as="geometry" />
        </mxCell>
        <mxCell id="kncKO0AR9khzgeK6I7eO-3" value="cuda、cudnn" style="rounded=0;whiteSpace=wrap;html=1;" vertex="1" parent="1">
          <mxGeometry x="340" y="480" width="120" height="60" as="geometry" />
        </mxCell>
        <mxCell id="kncKO0AR9khzgeK6I7eO-13" style="edgeStyle=orthogonalEdgeStyle;rounded=0;orthogonalLoop=1;jettySize=auto;html=1;exitX=0.5;exitY=0;exitDx=0;exitDy=0;entryX=0.5;entryY=1;entryDx=0;entryDy=0;" edge="1" parent="1" source="kncKO0AR9khzgeK6I7eO-4" target="kncKO0AR9khzgeK6I7eO-8">
          <mxGeometry relative="1" as="geometry" />
        </mxCell>
        <mxCell id="kncKO0AR9khzgeK6I7eO-4" value="window操作系统" style="rounded=0;whiteSpace=wrap;html=1;" vertex="1" parent="1">
          <mxGeometry x="200" y="360" width="120" height="60" as="geometry" />
        </mxCell>
        <mxCell id="kncKO0AR9khzgeK6I7eO-14" style="edgeStyle=orthogonalEdgeStyle;rounded=0;orthogonalLoop=1;jettySize=auto;html=1;exitX=0.5;exitY=0;exitDx=0;exitDy=0;entryX=0.5;entryY=1;entryDx=0;entryDy=0;" edge="1" parent="1" source="kncKO0AR9khzgeK6I7eO-8" target="kncKO0AR9khzgeK6I7eO-10">
          <mxGeometry relative="1" as="geometry" />
        </mxCell>
        <mxCell id="kncKO0AR9khzgeK6I7eO-8" value="MFC桌面应用开发" style="rounded=0;whiteSpace=wrap;html=1;" vertex="1" parent="1">
          <mxGeometry x="200" y="270" width="120" height="60" as="geometry" />
        </mxCell>
        <mxCell id="kncKO0AR9khzgeK6I7eO-10" value="红外智能抽帧软件" style="rounded=0;whiteSpace=wrap;html=1;" vertex="1" parent="1">
          <mxGeometry x="200" y="180" width="120" height="60" as="geometry" />
        </mxCell>
      </root>
    </mxGraphModel>
  </diagram>
</mxfile>
